<svg width="32" height="33" viewBox="0 0 32 33" fill="none" xmlns="http://www.w3.org/2000/svg">
<g id="users/verified-user">
<path id="Vector" d="M21.3733 25.3213L28.4319 18.8506C28.561 18.7322 28.7121 18.6405 28.8766 18.5805C29.0411 18.5205 29.2158 18.4935 29.3908 18.5011C29.5657 18.5086 29.7375 18.5506 29.8962 18.6245C30.0549 18.6984 30.1976 18.8029 30.3159 18.9319C30.4343 19.061 30.5261 19.2121 30.586 19.3766C30.646 19.5411 30.673 19.7158 30.6654 19.8908C30.6579 20.0657 30.6159 20.2375 30.542 20.3962C30.4681 20.555 30.3636 20.6976 30.2346 20.8159L22.2346 28.1493C21.9813 28.3815 21.6481 28.507 21.3046 28.4996C20.961 28.4921 20.6336 28.3523 20.3906 28.1093L16.3906 24.1093C16.1477 23.8578 16.0133 23.521 16.0164 23.1714C16.0194 22.8218 16.1596 22.4874 16.4068 22.2402C16.654 21.993 16.9885 21.8528 17.338 21.8497C17.6876 21.8467 18.0244 21.9811 18.2759 22.2239L21.3733 25.3213ZM1.33325 27.1666C1.33647 24.7784 2.05144 22.4453 3.38686 20.4654C4.72228 18.4854 6.61753 16.9484 8.83059 16.0506C7.69838 14.9955 6.97021 13.5781 6.77185 12.0432C6.57348 10.5084 6.91738 8.95241 7.74414 7.64412C8.57091 6.33583 9.82862 5.35735 11.3 4.87769C12.7715 4.39803 14.3642 4.4473 15.8032 5.01701C17.2421 5.58671 18.4369 6.64107 19.1812 7.99796C19.9255 9.35486 20.1726 10.9291 19.8797 12.4488C19.5869 13.9684 18.7725 15.3381 17.5772 16.3212C16.3819 17.3043 14.8809 17.8391 13.3333 17.8333C11.0896 17.8361 8.92173 18.6458 7.22558 20.1145C5.52943 21.5832 4.41813 23.613 4.09459 25.8333H13.3333C13.6869 25.8333 14.026 25.9738 14.2761 26.2238C14.5261 26.4739 14.6666 26.813 14.6666 27.1666C14.6666 27.5202 14.5261 27.8594 14.2761 28.1094C14.026 28.3595 13.6869 28.4999 13.3333 28.4999H2.66659C2.31296 28.4999 1.97382 28.3595 1.72378 28.1094C1.47373 27.8594 1.33325 27.5202 1.33325 27.1666ZM9.33325 11.1666C9.33325 11.9577 9.56785 12.7311 10.0074 13.3889C10.4469 14.0467 11.0716 14.5594 11.8025 14.8621C12.5334 15.1649 13.3377 15.2441 14.1136 15.0898C14.8895 14.9354 15.6023 14.5545 16.1617 13.995C16.7211 13.4356 17.1021 12.7229 17.2564 11.947C17.4107 11.171 17.3315 10.3668 17.0288 9.63588C16.726 8.90497 16.2133 8.28026 15.5555 7.84073C14.8977 7.40121 14.1244 7.16661 13.3333 7.16661C12.2724 7.16661 11.255 7.58804 10.5048 8.33819C9.75468 9.08833 9.33325 10.1057 9.33325 11.1666Z" fill="#E85252"/>
</g>
</svg>
